# xmcd
#
# Track frame offsets: 
#        150
#        19907
#        37100
#        48730
#        68017
#        85135
#        100182
#        116577
#        133502
#        153515
#        168075
#
# Disc length: 2574 seconds
#
# Revision: 0
# Processed by: cddbd v1.5.1PL2 Copyright (c) Steve Scherf et al.
# Submitted via: ExactAudioCopy v0.95b3
#
DISCID=8c0a0c0b
DTITLE=The Kanes - She Says...
DYEAR=1992
DGENRE=Country
TTITLE0=Movin' Up
TTITLE1=Damned If I Do
TTITLE2=Starlight Hotel
TTITLE3=Opposites Attract
TTITLE4=Choir Girl
TTITLE5=Kathleen
TTITLE6=Just In Time
TTITLE7=The River
TTITLE8=There Goes My Heart Again
TTITLE9=Ruby And Maxwel
TTITLE10=She Loves Me She Says
EXTD=
EXTT0=
EXTT1=
EXTT2=
EXTT3=
EXTT4=
EXTT5=
EXTT6=
EXTT7=
EXTT8=
EXTT9=
EXTT10=
PLAYORDER=
